# xmcd
#
# Track frame offsets:
#	150
#	13190
#	28428
#	43313
#	54574
#	70300
#	85456
#	99803
#	112032
#	128203
#	148654
#	160654
#	173247
#	187993
#	199558
#	210372
#	222197
#	222497
#	233448
#	243341
#
# Disc length: 3406 seconds
#
# Revision: 1
# Processed by: cddbd v1.5.2PL0 Copyright (c) Steve Scherf et al.
# Submitted via: audiograbber 1.83.01
#
DISCID=220d4c14
DTITLE=Billie Jo Spears - Sings The Country Greats
DYEAR=1991
DGENRE=Country
TTITLE0=57 Chevrolet
TTITLE1=Loving Him Was Easier
TTITLE2=Another Somebody Done Somebody
TTITLE3=Till Something Better Comes Al
TTITLE4=Sing Me An Old Fashioned Song
TTITLE5=Every Time I Sing A Love Song
TTITLE6=See The Funny Little Clown
TTITLE7=That's What Friends Are For
TTITLE8=Blanket On The Ground
TTITLE9=Ode To Billie Joe
TTITLE10=Misty Blue
TTITLE11=I Don't Wanna Play House
TTITLE12=Hurt
TTITLE13=Stand By Your Man
TTITLE14=He's Got More Love In His Litt
TTITLE15=Take Me To Your World
TTITLE16=What I've Got In Mind
TTITLE17=If You Want Me
TTITLE18=Never Did Like Whiskey
TTITLE19=Lonely Hearts Club
EXTD=
EXTT0=
EXTT1=
EXTT2=
EXTT3=
EXTT4=
EXTT5=
EXTT6=
EXTT7=
EXTT8=
EXTT9=
EXTT10=
EXTT11=
EXTT12=
EXTT13=
EXTT14=
EXTT15=
EXTT16=
EXTT17=
EXTT18=
EXTT19=
PLAYORDER=
